<svg width="250" height="117" viewBox="0 0 250 117" fill="none" xmlns="http://www.w3.org/2000/svg">
<path d="M47.0223 70.7837V70.6174H46.856L45.9698 70.4512L47.0223 70.7837Z" fill="white"/>
<path d="M97.9183 97.9761C98.9707 97.9761 99.912 98.4186 100.521 99.3611L102.072 98.4186C101.131 96.8686 99.7457 96.1486 97.9183 96.1486C96.6445 96.1486 95.5933 96.4261 94.8183 97.2011C93.7658 97.9761 93.267 98.9186 93.267 100.137C93.267 101.799 94.542 103.017 96.812 104.124L97.9195 104.567C99.5807 105.342 100.522 106.284 100.522 107.502L99.747 109.662L97.587 110.548L95.427 109.828L94.6508 107.669L92.657 108.111C92.8233 109.385 93.2658 110.436 94.207 111.212C95.1495 111.931 96.202 112.431 97.4195 112.431C98.8032 112.431 100.022 111.932 101.131 111.046L102.514 107.502C102.514 105.509 101.296 103.957 98.637 102.905L97.4183 102.407C96.0333 101.799 95.257 101.024 95.257 100.137C95.257 99.5286 95.5908 99.0298 96.1995 98.5873L97.9183 97.9761ZM108.941 98.2523H112.649V96.4248H103.124V98.2523H106.946V112.098H108.941V98.2523ZM125.389 106.45V96.4248H123.394V105.674C123.394 108.885 122.121 110.546 119.573 110.546C117.081 110.546 115.862 108.885 115.862 105.674V96.4248H113.868V106.45C113.868 108.111 114.311 109.661 115.418 110.77C116.471 111.822 117.854 112.431 119.572 112.431C121.399 112.431 122.783 111.822 123.836 110.77C124.889 109.661 125.389 108.111 125.389 106.45V106.45ZM131.259 96.4248H127.882V112.098H131.093L130.651 110.27H129.876V98.2523H130.651C135.524 98.2523 138.018 100.302 138.018 104.29C138.018 108.276 135.526 110.27 130.651 110.27L131.093 112.098C133.696 112.098 135.857 111.488 137.352 110.103C139.068 108.72 140.011 106.726 140.011 104.122C140.011 101.631 139.068 99.6361 137.352 98.2523C135.691 97.0348 133.696 96.4248 131.259 96.4248V96.4248ZM143.832 96.4248H141.838V112.098H143.832V96.4248ZM162.108 104.29C162.108 101.964 161.333 100.136 159.672 98.5861C157.955 96.8686 156.127 96.1486 153.857 96.1486C151.53 96.1486 149.703 96.8686 148.153 98.5861L149.372 99.8048C150.59 98.5861 152.142 97.9761 153.858 97.9761C155.685 97.9761 157.237 98.5861 158.455 99.8048C159.535 101.049 160.125 102.644 160.117 104.291C160.124 105.114 159.966 105.93 159.652 106.691C159.338 107.452 158.875 108.142 158.289 108.721C157.71 109.306 157.02 109.77 156.259 110.084C155.498 110.398 154.681 110.556 153.858 110.548C152.142 110.548 150.757 109.94 149.538 108.721C148.319 107.502 147.711 105.952 147.711 104.291C147.711 102.574 148.319 101.024 149.372 99.8048L148.153 98.5861C146.436 100.136 145.661 101.964 145.661 104.29C145.661 106.56 146.436 108.554 148.153 110.103C149.703 111.655 151.53 112.43 153.857 112.43C156.127 112.43 158.12 111.655 159.672 110.103C161.333 108.555 162.108 106.561 162.108 104.29V104.29ZM182.102 100.414L183.485 99.1936C181.769 97.1998 179.774 96.1473 177.172 96.1473C174.902 96.1473 173.018 96.8673 171.357 98.5848C169.807 100.135 169.032 101.962 169.032 104.289C169.032 106.559 169.807 108.442 171.357 109.937C172.907 111.655 174.735 112.43 176.895 112.43C179.055 112.43 180.882 111.655 182.268 110.268C183.652 108.885 184.428 107.057 184.428 104.897V104.289H178.114V105.95H182.268L180.55 109.382L177.007 110.767C175.344 110.767 173.959 110.102 172.742 108.717C171.524 107.332 170.859 105.949 170.859 104.287C170.859 102.57 171.523 101.02 172.742 99.8011C173.96 98.4161 175.512 97.8061 177.173 97.8061C179.165 97.8098 180.882 98.7523 182.102 100.414V100.414ZM186.088 96.4248V112.098H188.083V104.567H195.615V112.098H197.441V96.4248H195.615V102.739H188.083V96.4248H186.088ZM202.205 112.098V96.4248H200.211V112.098H202.205ZM206.969 96.4248H204.975V112.098H208.685L212.508 111.212C213.615 110.436 214.224 109.162 214.224 107.779L213.283 105.175C212.726 104.446 211.916 103.952 211.013 103.791V103.681C212.065 103.182 212.674 102.13 212.674 100.745C212.673 97.8098 210.845 96.4248 206.969 96.4248V98.1423H207.466C209.736 98.1423 210.845 99.0286 210.845 100.745C210.845 102.406 209.736 103.347 207.466 103.347H206.969V104.899H208.243C210.846 104.899 212.23 105.785 212.23 107.667C212.23 109.495 211.011 110.436 208.519 110.436H206.969V98.1423V96.4248ZM216.384 112.098H223.14V110.271H218.211V96.4248H216.384V112.098ZM226.186 112.098V96.4248H224.193V112.098H226.186ZM94.7208 70.4512V72.9424H106.131C105.022 75.9899 103.194 78.7574 100.703 81.1949C98.432 83.5211 96.1058 85.0724 93.502 85.9586L95.0533 88.0086C98.0995 86.7336 101.034 84.6299 103.803 81.3624L110.559 88.1199L112.554 85.9586L105.188 79.5337C107.182 76.7649 108.732 73.7199 109.507 70.4512H94.7208ZM120.252 74.3274H127.949C127.452 76.5987 126.566 78.4812 125.292 80.1424L120.252 76.9312L118.534 78.5924L123.631 81.9699C120.861 84.2961 117.759 85.8486 114.271 86.4561L115.654 88.6174C124.406 86.6236 129.612 81.0862 130.996 72.1687H121.636L122.854 69.8425L120.252 69.2325C118.702 73.2199 116.266 76.1549 112.886 77.8174L114.547 79.6999L120.252 74.3274ZM149.883 74.4387L147.39 73.3862C146.007 77.5399 144.344 80.5862 142.074 82.3036C140.081 83.9649 136.813 84.9061 132.714 85.2386L133.323 87.8424C138.087 87.3436 141.576 85.9586 144.234 83.8549C146.338 81.8599 148.22 78.7587 149.883 74.4387ZM150.824 71.67L149.773 68.4562L147.889 68.79L149.107 72.1675L150.824 71.67ZM132.382 75.0474L131.441 77.3737L137.588 79.8099L138.529 77.3737L132.382 75.0474ZM134.209 70.1737L133.157 72.4437C135.268 73.0442 137.324 73.8219 139.304 74.7687L140.357 72.4437L134.209 70.1737ZM144.843 69.0662L145.894 72.6112L147.723 72.1675L146.671 68.6225L144.843 69.0662ZM174.308 70.1737L173.254 72.4437C175.249 72.9412 177.242 73.7187 179.235 74.7687L180.455 72.4437L174.308 70.1737ZM172.479 75.0474L171.427 77.3737L177.574 79.8099L178.627 77.3737C177.408 76.5987 175.414 75.8224 172.479 75.0474V75.0474ZM189.869 74.4387L187.544 73.3862C186.159 77.5399 184.332 80.5862 182.172 82.3036C180.178 83.9649 176.965 84.9061 172.812 85.2386L173.42 87.8424C178.184 87.3436 181.728 85.9586 184.165 83.8549C186.492 81.8599 188.319 78.7587 189.869 74.4387V74.4387ZM189.094 72.1675L190.922 71.67L189.869 68.4562L187.987 68.79L189.094 72.1675ZM185.992 72.6112L187.875 72.1675L186.768 68.6225L184.94 69.0662L185.992 72.6112ZM211.524 71.06L210.583 68.0137L208.755 68.4562L209.696 71.5587L211.524 71.06ZM207.701 71.3925L208.421 71.2262L207.535 68.1787L205.541 68.6212L206.428 71.3912H192.472V73.8274H206.316C205.819 77.9812 204.156 81.1937 201.221 83.2424L194.299 85.6786L195.683 88.1161C204.156 86.2874 208.586 80.7499 209.031 71.39H207.701V71.3925ZM227.364 69.8412H224.705V79.2012C224.705 81.8599 223.819 83.6874 221.991 84.7399L214.901 86.1236L215.678 88.6161L220.883 87.6749L224.095 86.1236C226.255 84.4624 227.363 81.8599 227.363 78.1487V69.8412H227.364ZM216.288 70.1737H213.794V82.1374H216.288V70.1737ZM151.765 72.9424V75.3787H161.125C159.408 78.4799 156.362 81.5274 151.875 84.6274L153.26 86.7324C156.362 84.7386 158.799 82.4686 160.682 80.1424L162.62 77.3737V88.2849H165.113V75.3787H170.042V72.9424H164.947V69.3987H162.62V72.9424H151.765ZM250 92.2711V91.9948H70.2271V92.2711H250ZM72.2209 35.5602V35.2827H70.2271L69.7834 35.5602V35.7264L70.8359 35.5602L71.9434 35.7264L72.2209 35.5602ZM47.3535 55.7188L47.1873 55.5525V55.11L47.0223 54.6113V54.3351L46.7448 53.7251L46.5785 53.2263L46.4123 53.1163V52.7838L46.246 52.6176L45.9698 52.0076L45.8035 51.8976L45.526 51.3988L45.1948 51.1213L42.7573 50.3463L40.7085 50.5126L39.656 50.8451L38.8811 51.3988L38.7136 51.7313L38.6036 51.8976L38.4373 52.2301L38.2723 52.3413V52.5076L38.1061 52.6176V52.7838L37.9948 52.9501V53.3926L37.8286 53.7251V54.1688L37.6623 54.5001V54.7775H37.4961V55.5525L37.3298 55.9963L37.0523 56.3275V56.4938H37.2198L37.4961 56.9375V58.3225H37.6623V58.4888L37.8286 58.7638V58.93L38.1061 59.375L38.4373 59.0975V58.93L38.2723 58.655V58.045L38.1061 57.8788V55.7188L38.2723 55.5525V55.275H38.4373V54.0026L38.6036 53.8913V53.3926L38.7136 53.2263V52.7838H38.8811L39.2123 52.2301L39.4898 51.8976L41.9823 50.9551L43.4773 51.1213L44.4185 51.5651L45.0285 52.2301H45.1948V52.3413L45.6373 53.2263L45.8035 53.3926V53.6138L45.9698 53.8913L46.136 54.0026L46.246 54.5001V54.6113L46.4123 54.7775V55.275L46.5785 55.3863V55.9963L46.7448 56.6613V57.38L46.5785 57.7138L46.246 58.155L45.9698 58.3225L45.1948 58.93L44.4185 59.375L42.5923 60.15L41.6498 60.3163L39.9885 60.0388L39.4898 59.8725H39.3785L39.0473 59.5413L38.6036 59.2638L38.4373 59.0975L38.1061 59.375L39.4898 60.4825L40.431 60.7588L41.6498 60.925L43.976 60.3163L45.6373 59.375L46.7448 58.4888L47.0223 58.045L47.1873 57.8788H48.1285L48.2398 57.5463L47.7973 57.2688L47.521 56.9375L47.3535 56.6613V55.7188ZM28.9111 53.8913V54.0026L29.1886 54.1688L29.3548 53.8913V53.7251L29.5211 53.3926V53.1163L29.6861 52.7838V52.5076L29.8523 52.0076V51.8976L29.6861 51.7313L29.5211 51.8976V52.0076H29.3548V52.5076H29.1886V53.1163H29.0774V53.2263L28.9111 53.8913ZM30.4611 53.2263H29.9636L29.8523 53.6138L29.9636 53.8913H30.2961L30.4611 53.6138V53.2263ZM31.1823 53.7251H30.7386V53.8913L31.0723 54.1688L31.1823 54.0026V53.7251ZM32.1248 54.0026H31.8473L31.6811 54.3351L31.8473 54.5001L32.1248 54.6113L32.2898 54.5001V54.1688L32.1248 54.0026Z" fill="white"/>
<path d="M38.8811 55.3862V56.9375L39.0473 57.1025L39.4898 57.7137H40.2648L40.5973 57.5462L40.8748 57.1025V55.11L40.4311 55.5525L40.5973 55.7187L40.4311 55.9962L40.2648 55.885V55.5525H40.4311L40.8748 55.11L40.7086 54.6112L40.5973 54.335L40.2648 54.0025L39.6561 54.1688L39.0473 54.7775V55.11L38.8811 55.3862ZM23.5387 59.7062V59.5412L23.3737 59.2637L22.9299 58.93L21.9887 59.0975L21.8224 59.375L21.6574 59.5412V59.8725L21.5462 60.0387L22.1549 60.3162L23.3737 60.0387L23.5387 59.7062ZM40.2648 65.6887L40.0986 66.1862V66.2974L40.5973 66.7949L41.2061 66.2974L41.0398 66.1862L44.4186 66.2974V66.4637H41.9823L41.2061 66.2974L40.5973 66.7949L42.5923 67.0724L56.3822 68.0137L57.3235 68.2912H58.2647L61.311 68.8999H62.086L62.2522 68.7899L61.9197 68.2912L59.6497 67.8474L57.4897 67.6812L56.1047 67.4049L40.2648 65.6887ZM37.2198 68.7899H35.2249L35.3361 68.8999L36.1111 69.3987L39.3786 69.6749L42.5923 70.4512V70.1737L42.0923 69.6749L40.5973 69.5649L39.2123 69.0662L37.2198 68.7899Z" fill="white"/>
<path d="M62.2522 74.6037V74.3274L61.9197 73.9949L61.1434 73.5524L61.0334 74.1612V74.3274H59.4822L56.991 73.5524L56.1047 73.3862L48.2397 71.06L47.521 70.7837L48.7397 70.95L50.7322 71.5587H51.4522L60.2584 73.8287L61.0334 74.1612L61.1434 73.5524L56.271 72.3337L55.3297 72.0012L40.0985 68.4562L39.656 68.2912L38.2723 68.0137H37.6623L36.6098 67.6812L35.0586 67.8475L34.8923 68.0137L35.0586 68.2912L35.5023 68.0137L36.2773 68.2912L38.2723 68.6225L39.3785 69.0662L42.8673 69.565L43.0348 69.675L44.2535 70.0087L43.8098 70.1737L43.4773 70.6175H43.6435L57.3235 74.3274L61.1434 74.9374L62.2522 74.6037ZM22.3211 71.8362V71.5587L21.9886 71.2262L21.2136 71.3925L21.0474 71.5587V71.67L22.3211 71.8362ZM39.3785 73.7187V74.3274L39.9885 74.7699L40.431 74.3274L39.9885 73.9949L40.0985 73.8287L41.9823 74.4387H42.2585L49.5147 77.5399L49.9572 77.7062L52.1172 78.9237V79.0899H51.951L42.2585 75.0474L41.6498 74.9374L40.431 74.3274L39.9885 74.7699L48.406 77.9824L48.5735 78.1487L49.5147 78.5924L50.2897 78.7587L53.1685 79.9762L53.6672 80.1424L54.5535 80.3087L54.721 80.1424L54.111 79.6999L53.501 79.0899L50.2897 77.0962L49.3485 76.7649L48.7397 76.4324L40.8748 73.5524L39.656 73.3862L39.3785 73.7187ZM33.6748 83.6874L33.5086 83.5211L33.0661 83.3549H32.7336L32.8998 83.9636L33.8411 84.4611L34.2836 84.7386L34.7261 84.9049L34.8923 85.2374V85.3486L35.9448 85.8474L36.6098 86.2899H36.7198L37.0523 86.7324L37.3298 87.3411V87.5636L37.6636 87.6749L38.1061 88.1174L38.6035 88.4499L38.881 89.0586L39.0473 89.2249H39.2135L39.656 89.8336L41.0398 91.2174V91.3836L41.206 91.4949V91.7174L41.4835 91.9949V92.1049L41.816 92.4373V92.6049L41.9835 92.7711L42.0935 93.2136L42.2598 93.3798L42.426 94.1548V94.4323L42.5935 95.0411V95.3736L42.7598 95.6511L43.0373 95.9836L43.2035 96.2611V96.4273L43.646 96.8698V97.0361L43.8123 97.2023V97.6448L43.9785 97.9773L44.1448 98.4198V99.0298L45.5285 100.58L45.6398 101.355V104.124L45.806 104.401V104.735L45.9723 104.901V105.787L45.806 105.954V106.286L46.4148 106.729V107.061L46.2485 107.504V108.112L46.4148 108.279L46.7473 107.67V107.504L46.8585 107.337V106.895L46.581 106.562L46.7473 105.676H46.581V104.735L46.4148 104.292V103.184L46.2485 102.131V101.965L46.4148 101.632V100.58L44.8648 99.0298C44.7535 98.9186 44.5873 98.7523 44.7535 98.4198L44.5873 97.6448V97.5348L44.421 97.2011V96.8686L44.2548 96.7573L44.1435 96.4248L43.646 95.9823V95.8161L43.4785 95.6498L43.3685 95.3723L43.2023 94.7636V94.5973L43.036 94.2648V93.4886L42.8685 93.2123V93.1011H42.7585V92.7686L42.5923 92.6024L42.2585 92.1036L42.0923 91.8261L41.8148 91.4936V91.3824L41.6485 91.2161V91.0536L41.206 90.7211V90.6099L39.9873 89.3911L39.821 89.0586L39.046 88.2836L38.7135 87.8411V87.6749L38.6035 87.5636H38.4373L38.1048 87.2311L37.8273 86.7324V86.4549L37.4948 86.1224L37.3273 85.8461L37.0498 85.6786L35.6661 85.2361L35.2236 84.9036H35.3348V84.6286L34.8923 84.2961L33.6748 83.6874ZM19.8299 95.9823C19.3861 95.8161 18.7761 95.9823 18.0012 96.5911L17.6687 96.8686L16.7824 97.2011L16.0074 97.9761L14.4574 99.0298L14.2912 99.3623L13.5149 100.137L13.4049 100.415L13.2374 100.581V100.914L13.5149 101.191L16.0074 101.025L16.8937 100.914H17.3912L17.8337 101.191L18.2762 101.634L18.8849 102.131L19.2174 102.574L19.6599 103.016L19.8274 103.349L20.1599 103.682L20.2699 103.959V104.125L20.6036 104.402L20.7699 104.901L20.9361 105.067L21.8224 105.51L22.1549 105.176H22.3211V102.906H22.4324V102.297L22.5986 102.131V101.799L22.4324 101.521V100.912L22.3211 100.415V99.9723H22.1549V99.5298L21.9886 99.3636L21.6561 99.5298L21.8224 100.416V101.357L21.9886 101.8V102.575H21.8224V104.292L21.6561 104.57L21.3786 104.736L20.9361 104.294V104.126L20.7699 103.96V103.684L20.4374 103.35L19.9949 102.741L19.8286 102.575L19.6611 102.297V102.131L19.3836 101.799L19.0511 101.632L18.8849 101.521L18.7736 101.189L17.9987 100.746L16.6149 100.137L15.6737 100.415H14.6212V99.9723L16.6149 98.5886L17.0574 97.9786L19.5524 96.5911L19.9949 96.7573L20.1611 96.8686L20.4386 97.0348L20.6049 97.3673L20.7711 97.5348L20.9374 97.8111L21.0486 97.9773V98.2548H21.2149V98.5886L21.3811 98.7548V99.0323H21.5474V99.3648L21.6586 99.5311L21.9911 99.3648V98.9223L21.8249 98.5898L21.6586 98.1473V97.9798L21.5474 97.5373V97.3661L21.3811 97.1998V97.0336L21.2149 96.8673L20.4399 96.2586L19.8299 95.9823ZM36.2773 108.886V108.72L36.1111 108.554V108.444L34.7273 107.059L34.1186 106.892L33.3436 107.059L31.9598 107.779L30.9073 108.886V109.164L30.1311 109.939L29.5223 110.436L29.3561 110.77L29.1898 110.881L28.9123 111.324V111.657L29.0786 111.824L30.7398 112.101H32.5686V111.658L31.5148 111.491H29.9648L29.8536 111.215V110.882L29.9648 110.771L30.2973 110.549L30.4636 110.437L31.3498 109.662L31.5161 109.496L32.1261 108.721L32.4586 108.555C32.9011 108.112 33.3448 107.78 33.8423 107.669H34.6173L35.3373 108.445L35.6698 108.887V109.165H35.8361V109.497L35.9473 109.83V110.107L36.1136 111.658V111.935H36.2798V112.877L36.4473 113.32V113.817L36.2798 113.928H35.6711L34.7298 113.042V112.876H34.6186L34.1211 112.433L33.9548 112.101H33.8436L32.5698 111.658V112.267H32.7361L33.5111 112.545L33.9536 113.042L34.2861 113.485H34.4523L34.7298 113.927L35.0623 114.26L36.1148 114.592L36.8911 114.426L37.0561 114.093V113.651L36.8911 112.876V112.101L36.7236 111.325V110.55L36.6136 109.83V109.497L36.4473 109.386V109.054L36.2773 108.886ZM91.6058 47.7438L93.267 48.7963L93.5983 49.2388L94.2083 49.7376L93.5983 50.3463V50.6238L94.5408 50.9551L94.8183 51.2326V51.3988L95.1495 51.7313L95.2595 52.0076L95.5933 52.2301L95.7595 52.5075L96.0345 52.95L96.202 53.1163L96.5345 53.6138V54.1688H96.3683L96.202 54.5V54.6113L96.5345 54.9988L96.812 55.3863V55.5525L97.587 56.3275L97.9183 56.7713V56.9375L98.1958 57.5463V58.155L98.362 58.3225L98.5282 58.655V58.7638H98.6382V59.5413L98.9707 60.15V60.3163L99.137 60.6475L99.3045 60.7588V61.0913L99.4145 61.4225L99.7457 61.8663V62.0325L99.912 62.3087L100.023 62.475V62.9187H100.189V63.25L100.356 63.6937V64.0262H100.521V64.3037L100.688 64.6362L100.798 64.8025V64.9125L100.966 65.0787L101.132 65.5225L101.297 65.8537L101.407 66.02L101.573 66.2975V66.4637L101.741 66.9062V67.0725L101.907 67.6812L102.073 68.0137V68.2912L102.183 68.79V69.0662H102.349V69.565L102.682 70.1737V70.95H102.793V71.2262H103.402V70.95H103.291V70.4512H103.124V70.1737L102.959 70.0087V69.2325L102.793 68.9L102.682 68.79V68.2912L102.516 67.6812V67.405L102.349 67.0725V66.9062L102.183 66.795V66.4637L102.073 66.2975L101.907 65.8537V65.6887H101.741V65.4112L101.573 65.245V64.9125L101.407 64.8025L101.132 63.8612V63.6937L100.966 63.5275L100.798 63.25V63.085L100.356 62.1438V61.8663L100.189 61.7L100.023 61.2575V61.0913L99.912 60.925L99.7457 60.6475V60.3163L99.5795 60.15L99.3045 59.5413V59.2638H99.137V58.93L98.9707 58.4888V58.155L98.8045 58.045V57.8788L98.6382 57.5463V57.38L98.5282 57.1025V56.7713L98.362 56.6613L98.1958 56.3275L97.9183 55.885L97.752 55.5525L97.3095 55.11L97.4208 54.7775V54.335L97.3095 53.8913L97.1433 53.6138H96.977V53.2263H96.812L96.6458 52.95L96.202 52.3413L96.0345 52.0076L95.427 51.1213L95.2595 50.9551V50.8451L94.9845 50.3463L94.8183 50.1801V49.8488L94.6508 49.7376L94.3733 49.2388L94.2083 48.9626L93.432 48.1876L92.9895 47.5776H92.8233L92.2145 47.0788L91.4395 47.4101L91.6058 47.7438ZM40.2648 27.4177L39.9885 27.1414V26.9752L39.8223 26.8089L39.4898 26.6427L39.2123 26.9752L39.4898 27.3064L39.8223 28.1927V28.8027H39.656V28.9702L39.4898 29.1352L39.2123 29.5777L38.4373 29.3014L38.2723 28.9702L37.9948 28.6927V28.5252L37.8286 28.1927V28.0277H37.9948V27.5839L38.1061 27.4177L38.2723 27.1414L39.2123 26.9752L39.4898 26.6427L38.881 26.5314H38.2723L37.8286 26.8089L37.6623 26.9752L37.3298 27.4177V28.6927L37.4961 29.1352L37.6623 29.3014L37.8286 29.5777L38.2723 29.7452L39.4898 29.9089L39.656 29.5777L40.0985 29.1352L40.2648 28.6927V27.4177Z" fill="white"/>
<path d="M83.7408 2.71778V3.77028L83.9071 4.21278L84.0746 4.37902L84.2408 4.71152V5.32152L84.3521 5.76402V6.20651L84.5183 6.54026V7.924H84.6845V8.86525L84.8508 8.97525V9.309L85.017 9.47525V10.2502H85.1283V12.3565L85.2945 12.5227V12.8552L85.4608 13.2977V14.6815L85.6271 15.014V15.4565L85.7383 15.6227L85.6271 15.734L85.7383 16.0665V17.2852H85.9045V19.2802L86.0708 20.4977V22.9902L85.9045 23.2677V26.3689L85.7383 26.5351L85.9045 26.8126V27.4214H85.7383V28.5289L85.6271 28.8064V29.1401L85.4608 29.4164V29.9139L83.4671 30.6901C82.9683 30.8014 82.5246 30.9676 82.2471 31.1326L80.6971 31.4101L79.3133 32.6839V33.9026L79.1471 34.0689V34.3464L78.9808 35.4538L78.7033 35.8963L78.5371 36.3401L78.3708 36.5051L78.2046 36.8388V37.1163L78.0933 37.2826V37.7251L78.3708 37.8913L78.8683 37.5588L78.9796 37.4476V37.1151L79.7546 37.2813L81.3046 38.0563C82.6896 38.8313 83.6308 39.2751 83.9071 39.2751L84.2408 39.4413L85.6245 39.8838L86.5108 40.3263L87.452 40.9913V41.2688H86.677L86.3995 41.6013L88.6695 42.8201L90.4983 44.2038V44.37L90.387 44.4813L89.112 44.2038L88.6695 44.4813L89.2795 44.8138C90.0545 44.98 90.8295 45.3125 91.2733 45.7563L92.8232 47.2513L93.432 47.7488L93.8745 48.3575H94.0407L93.8745 47.8588L92.4908 46.475L92.3795 45.7563L92.047 45.59L91.7695 44.98L90.9945 43.8726L89.002 42.2051L88.8345 42.0388L89.112 41.7063V41.4288L88.2258 40.8213L87.7283 40.3226L86.6758 39.6026L82.3558 38.0526L80.8608 37.1113V36.8338L81.9133 36.9451H82.6896V36.6676L82.5221 36.5001L80.6946 36.1688L79.9196 35.5601L80.0858 35.4476L81.4696 35.7263H81.9121L83.2958 36.0588H83.7383L84.0721 35.8913L83.9045 35.5601L80.9696 34.9501L80.0833 34.6726L80.2496 34.5064L80.5271 34.3401L82.2433 34.5064L84.8471 35.2826L85.8995 35.7251L86.232 35.5588V35.2813L86.0658 35.1138L85.1245 34.5051L83.7396 34.1726L80.2521 33.7314L80.0858 33.5651L80.2521 33.4539H80.9721L82.3558 33.2876H84.682V33.1214L83.2971 32.7889H80.5283L80.3621 32.6776L81.3033 32.1801L82.9646 31.5714L84.5158 31.2939L85.6233 30.6851V30.5176L86.232 29.5764V28.9689L86.3983 28.8014V24.3714L86.5095 24.0377L86.3983 23.7614L86.5095 22.9852V18.4989H86.3983V16.8377L86.232 15.619V14.844L86.0658 14.069V13.294H85.8995V12.6852L85.7333 12.3527V11.909L85.622 11.4665V8.97275L85.4558 8.86275V7.924L85.2895 7.59026V7.14901L85.1233 6.98151V5.93027L85.0145 5.76277V5.15402L84.8483 4.98777V4.82152L84.682 4.54402V4.37902L83.9058 2.21779L83.4646 2.10779L82.3558 2.38529L82.0783 2.71778L81.9121 2.99403L81.7458 3.16153L81.4696 3.60403L80.8608 4.98777L80.5283 5.32152L80.2521 5.93027L80.0858 6.09652L79.1446 7.31526L78.9783 7.59151L78.5358 8.09025V8.3665L78.2033 8.699L77.1508 10.6927L76.9833 11.1352L76.8171 11.3015L76.7058 11.6352L76.5396 12.0777L76.2071 12.3552L76.0958 12.6877L75.9296 12.854L75.5971 13.4627V13.629L75.4858 13.7402L75.1534 14.6815L74.8209 14.8477V15.014L74.5434 15.6227L74.3771 15.734L74.2109 16.0665V16.2327L74.0996 16.6752V16.8415L73.9334 17.009V17.2852L73.7671 17.4527V17.8952L73.6009 18.2289V18.6714L72.9921 19.8889V20.0564L72.8259 20.2227L72.2159 21.1639L72.0496 21.6064L71.9384 21.7727L71.7721 22.3814L71.3296 22.9902L71.1621 23.6002L71.0021 23.7639L70.8359 24.0402L70.5584 24.5389L70.3921 24.6502V24.8164L70.2259 25.1489V25.4264L70.3921 26.5339L71.4446 27.9176L71.9421 28.3601V28.5264H72.0534L72.2196 28.9701L72.7184 29.7451V30.5189L72.2196 30.3539L71.6109 29.7451L69.1746 28.3601L68.3996 29.1364L71.1684 31.1301L71.9434 32.0714L72.2209 32.3489L72.5546 32.5151L72.7209 32.1826L71.7784 31.2964L70.5596 30.3551L69.7846 29.5789V29.4126L69.6184 29.3026L70.3934 29.7451L70.7271 30.0776L71.3359 30.5201L71.4459 30.6876L72.2209 31.1301L72.5546 31.4076L72.7209 31.7401V32.1826L72.5546 32.5151L72.7209 32.6814V33.1239H72.5546L72.0559 32.9576L69.3421 30.9639L68.5671 31.1301L69.0096 31.5726L70.5596 32.5139L70.7271 32.7914L70.3934 32.6801L66.4072 32.0714L65.4647 31.7389L64.5784 31.5726L64.4122 31.4064H61.8097L61.1447 31.1289V30.6864L61.6434 30.1889L63.1934 29.7464L63.9134 29.5789L64.0797 29.3026L63.6372 29.1364H63.1947L62.6972 29.3026V29.4126L62.4197 29.5789L61.4784 29.7464V29.5789H61.6447L61.9222 29.3026H62.6972L63.1947 29.1364L64.4134 28.5264V28.3601H63.9159L63.1959 28.6939L61.6459 28.8039L61.1472 28.5264L60.8709 29.1364H60.7022L60.8684 29.4126V30.0776L60.7022 30.3539L60.5359 31.1289L59.9259 31.4064L56.991 31.7389L56.8797 31.1301V28.8039L56.991 28.6939V27.9164L57.1572 27.5839L56.991 27.4176V26.9751L56.8797 26.8089L56.7135 26.5314L56.8797 26.1989L55.7722 25.5902L55.1622 25.1477L55.0522 24.9814V24.8152L54.886 24.5377V23.4302L55.0522 22.9864V22.6539L55.1622 22.5427L55.496 21.8789V21.7677L55.606 21.4352V21.2689L55.7735 21.1577L55.9397 20.8252V20.3827L56.106 20.2164V19.7739L56.3835 18.6664V18.2239L56.5497 17.7814L56.716 17.4489V17.2815L56.9935 16.839V16.5065L57.1597 16.3952V16.0627L57.326 15.8965V15.7302L57.4922 15.4527L57.6585 15.2865V15.009L57.7697 14.8427V14.509L57.9359 14.344V14.0665L58.1022 13.899L58.7109 12.6815L59.0434 11.739L59.1547 11.629L59.3209 11.2952L59.4872 11.129L59.9297 10.2427L60.5397 9.579L61.3147 8.52525L61.4809 8.249L61.8134 7.75151L63.0322 6.53276L63.1984 6.69901L63.3097 6.97526V7.30901L63.4759 7.47526V8.084L63.6422 8.5265V8.694L63.8084 9.1365V10.5215L63.9197 10.854V11.7402L64.0859 12.074V14.234L64.2522 14.5102V14.6777L64.4184 14.844V15.619L64.5847 15.8965V17.8902L64.6959 18.2239V20.0514L64.5847 20.2177V21.8789L64.6959 22.0452V22.8202L64.8622 23.1539V23.4314L65.0284 23.5977V24.8164L64.5859 25.7577L61.8172 27.1414L61.3197 27.5839L61.1522 27.9164L61.3197 28.0276V28.3601H61.6522L63.0359 28.0276H63.6447L64.4197 27.9164L63.9222 27.5839H62.8697V27.4176L63.8109 26.9751L65.1959 26.0339L65.3059 25.7564L65.6384 24.0389V23.5964L65.4722 23.4302V21.6014L65.3059 21.4352V18.4989L65.1959 18.2227V16.8377H65.3059L65.1959 16.6715V14.6777L65.0284 14.3452V13.2927L64.8622 13.0152V12.849L64.6959 12.3515V11.7415L64.5847 11.4652V10.9665L64.4184 10.689V9.13775L64.2522 8.69525V8.25525L64.0859 7.92276V7.31401L63.8022 6.70526V6.53901L63.6359 6.20526V6.09652L63.4697 5.76277H62.6947L61.6422 6.87151H61.4772V7.14901L61.0347 7.59151L60.5372 8.53275L59.6509 9.47525L59.1522 10.3615L58.5434 11.1365L58.3772 11.3027V11.4702L58.2659 11.7465L58.0997 12.3565L57.9334 12.5227V12.689L57.656 13.1315V13.629L57.3235 13.9052V14.0727L57.1572 14.3502L56.991 14.5152V14.849L56.8797 15.1265V15.459L56.5472 15.9015V16.0677L56.381 16.4002V16.5115L56.2697 16.844L56.1035 17.0115V17.2877L55.9372 17.7864L55.6035 18.0639V18.3964L55.4935 18.6739V18.8402L55.3272 19.0064V19.7814L55.1597 20.0589V20.5014L55.0497 20.6689V21.2777L54.8835 21.7752L54.5497 22.3839V22.5502L54.2172 23.1602V23.4377L54.1072 23.9339V24.3777L54.2172 24.6552L54.3835 24.8214V25.1539L54.7172 25.4314L56.5447 26.6501L56.2672 27.4251L54.1072 26.3726L52.8322 26.0402C52.721 25.9289 52.5547 26.0402 52.3897 26.2064L52.9985 26.6489C53.496 26.6489 53.9397 26.8151 54.2172 27.1464L53.7747 27.4239L53.4972 27.9214H54.5497L55.4922 28.0326L56.2672 28.3651L56.101 28.6989L54.8822 28.8089L54.2172 28.9764V29.1426H55.0485L55.491 28.9764L56.0997 29.1426V29.5851L55.9335 29.9176L54.3822 30.0851L54.216 30.3626L54.3822 30.5276L55.0472 30.3626L55.5997 30.0851L56.0985 30.1964V30.6939L55.5997 30.9714L55.7672 31.4139V31.7464L55.3247 31.9126L55.1572 31.5801L55.7672 31.4139L55.5997 30.9714L54.7147 31.4139C53.9385 31.5801 53.661 31.7464 53.661 31.9114L52.7197 32.3539L52.5535 32.5201L52.276 32.3539L52.3872 31.9114V31.4139L52.276 31.1364L50.5597 30.6939V30.1964L49.951 28.9776L48.7323 27.4264L47.956 26.9839L47.5135 26.0427L46.7373 25.2677V24.9902L46.571 24.8239L46.4048 24.3814L45.5185 23.1627L44.5773 22.3864L42.5835 21.1677V20.8352L42.416 20.5014L42.2498 20.3914V18.8414L42.0835 18.6752V18.5077L41.9735 18.2314V18.0652L41.8148 17.6165H41.6485V17.2827L41.3723 16.8402L41.2048 16.5077V16.3965L40.2635 14.3477V14.0702L40.0973 13.9027L39.986 13.4602L39.8198 13.294H39.3773L39.0448 13.4602V13.7377L38.8786 13.9027L38.7111 14.2365V14.679L38.6011 15.0115V15.6202L38.4348 16.0627V17.2815L38.1023 17.6152L37.8248 17.1165L37.2161 15.8977V15.7315L37.0486 15.454V15.2877L36.8836 15.0102L36.4411 14.5115H36.1073L35.9411 14.8452V15.1227L35.8298 15.4552V15.8977L35.6636 16.2302V17.6152L35.5023 18.0589V19.0002L35.6686 19.1664H35.5023V20.0527H35.6686V20.9939L35.8348 21.1602V21.4377L35.9461 21.7702V24.8177L35.0598 26.6451V27.4201L34.8936 27.5864V28.5276L35.2261 28.3614L35.3373 28.0289L35.5023 27.9164L35.6686 27.5839L35.8348 27.7501V27.9164L35.5023 28.5251L35.6686 28.8026L35.8348 28.9701H35.9461V29.1364H35.8348L35.6686 29.4126L35.3361 29.5789L35.2248 29.4126V28.3601L34.8923 28.5264H34.7273L34.8936 28.9701V29.7451L35.0598 30.0776V30.9639L35.2261 31.4064V32.6801H35.0598V33.5664L34.8936 33.7326V34.6739L35.0598 34.9514V35.4488L35.2261 35.7276L35.3373 36.5013L35.5036 36.8351L35.8361 37.7213L36.1136 38.0538L36.4473 38.6626L35.8373 39.2713L35.5023 39.7126H35.0598L34.6173 40.0463L34.4511 39.7126V39.2701L34.1186 39.1038L33.8411 39.6013L33.5086 40.2113V40.3213L32.5673 41.2638L32.2898 42.2051L31.9573 42.4813L31.6798 42.9801L31.3461 43.5888L31.1799 43.7001V44.0326L31.0699 44.1988L30.9036 44.4763L30.5699 44.9738V45.085L30.4586 45.3075L29.9611 46.1925L29.6836 46.47L29.3511 46.9688V47.0788L29.0736 47.7438L28.9074 47.8538L28.7411 48.1875L28.5749 48.3538L28.4636 48.7963L28.2974 49.1288V49.4613L28.1311 49.7388V50.0163L27.9649 50.3488V50.515L27.7986 50.8475V51.2363L27.6874 51.5688V51.9025L27.5211 52.5113V52.7887L27.3549 53.1212V53.6187L27.1886 53.73L26.5799 54.6162L26.1374 55.0037L22.4262 56.0012L20.5987 57.1087V57.3862L20.4324 57.72L20.2649 57.8862V59.27L20.4324 59.5475V60.045L20.1549 60.4875L19.6562 61.8712V62.0374L19.2137 62.6462H18.2774L18.1674 62.4799L17.6687 62.3137H17.3912L16.8937 62.4799L17.0599 62.8124L17.2262 62.9237L18.4449 63.2562L19.2199 63.5337L19.3862 63.8674V65.0862L19.2199 65.2524L17.5024 65.5224L14.2912 66.7962V67.0737L14.4574 67.4062L19.0537 65.8562L19.3862 66.1887L19.2199 66.4662V66.7987L19.0537 66.9099V67.0762L18.8874 67.4087V67.6862L18.7762 67.8524V68.1849L18.0012 68.6274L17.5024 69.0662L18.7762 68.8999L18.8874 69.0662L19.0537 69.3999L19.2199 69.8424V70.0099L19.3862 70.2861V70.4537L19.5537 70.9511V71.0624L19.6637 71.3949V71.5611L19.8312 71.6724L19.9974 72.0049L19.8312 72.3374L18.4462 72.6149L17.6712 72.9474L17.3937 73.2249V73.9999L17.5049 74.1661L17.3937 74.3324L15.8437 76.6036L15.0687 77.1011L14.2937 77.8211L13.8512 78.1536V78.5961L13.685 78.7623L12.9087 79.3711L12.6312 79.8136L10.4712 82.1398L9.08748 83.2473L8.31248 83.6898L7.53624 83.9673L7.86999 84.6311L6.31874 86.1261L5.98625 86.6248V86.7348L6.1525 87.2336L5.98625 87.3436L5.3775 88.1198L5.1 88.4523L4.7675 89.061V89.836L4.32501 90.3335L4.15876 90.7223L3.87876 91.0535V91.386L3.71251 91.7198V91.9973L2.60377 93.1048V93.3823L1.71877 94.601V95.0435L1.55252 95.2098V95.5423L1.38502 96.151V97.2035L0.942525 97.8122L0.776276 97.9785L0.610027 98.256L0.498778 98.7547L0.332529 98.921L0.16628 99.3635H0.332529V99.6397L0.498778 99.9735V100.416L0.332529 100.748V101.357L0.16628 101.635V101.801L3.05176e-05 102.133V102.411L0.16628 102.577L0.498778 102.3V101.636L0.610027 101.525V101.192L0.776276 100.915V99.9735L0.942525 99.6397L1.10877 99.5297L1.38627 99.0322V98.921L1.22002 98.5885L1.38627 98.421L1.99502 97.536L2.60377 96.871L2.32752 96.2622H2.49377L4.93 95.2098H5.87125L6.92374 95.9847L7.25624 96.2622V96.591L7.36749 96.7572L8.14248 97.366H8.75248L9.24998 96.7572V96.4248L8.75248 96.591L8.64123 96.7572L8.14248 96.2598V96.1485L7.86624 95.651L7.53249 95.3735L7.25499 94.7648L7.08874 94.5985L5.98125 94.266L4.48626 94.5985L3.87876 95.041L2.77001 95.5385L2.49377 95.3723V94.8748L2.60377 94.5973H2.77001V94.266L2.93751 93.8235L3.38001 93.381L3.54626 93.1035L3.87876 92.771L4.32126 92.6048L4.93 91.996L5.53875 91.4973C5.98125 91.2198 6.1475 91.0548 6.31374 91.0548L8.03123 90.1135L8.30873 90.446V90.8885L8.47498 91.4973V92.106L8.30873 92.8823L8.47498 93.1035V93.6573H8.64123V95.5398L8.75248 96.1485V96.591L9.24998 96.4248L9.36123 96.2585L9.52748 95.981V94.5973L9.36123 94.2648V93.4885H9.24998V90.4423L9.08373 90.331V89.9985L8.75248 89.5023L8.14248 89.391L7.53374 89.6685L7.36749 89.8348L5.0975 91.0535L5.375 90.1123V89.8348L5.54125 89.5023L6.75999 88.616V88.2835H6.31499L5.9825 88.4498L6.14875 88.1173L6.92374 87.3411L8.30873 86.2886L8.47498 85.6798H7.86624V85.5136L9.24998 84.2948L9.36123 83.8523L10.3025 82.9111L12.2962 81.5273L13.405 80.4736L14.1799 79.8098L15.3987 79.0898L19.2199 77.5399L21.2149 77.0974L21.3812 77.5399L21.6587 77.7061L23.8186 78.3149C24.5936 77.9824 25.0374 77.9824 25.3699 78.3149L26.5886 78.9236L27.5299 79.2011L28.3049 79.8098L29.0799 80.3073L30.2986 81.3598L31.0749 81.8586L31.8498 82.1361L33.2336 83.0773L33.6761 82.9111L33.3436 82.4686L32.4573 81.8598L31.0736 81.1948L27.6949 78.5924L24.9261 77.7061H23.9836C23.7061 77.3736 23.3749 77.2086 23.0424 77.2086L22.1562 76.9311L20.6062 76.7649L17.8362 77.2074C17.0612 77.5399 16.4524 77.8161 16.1199 77.9824L15.3999 78.4799L14.6249 78.5911V78.3136L16.0087 77.0949H16.1199L16.7837 76.5974L16.8949 76.3199V76.1524L17.3924 75.7099L17.8349 74.9349L18.6099 74.3249L18.7762 73.9924L19.0537 73.5499L19.2199 73.2174L20.6049 72.7749L20.7712 72.6086L20.4387 72.1661V71.8336L20.6049 71.5561L20.4387 70.7811L20.2712 70.6149L19.6624 69.3962V68.6199L19.5524 68.1774V67.4024L19.6624 67.0699V66.9037L19.8299 66.6262V66.2937L19.9962 66.1824V65.4074L20.1624 64.7987V63.8574L19.9962 63.5237V63.2462L20.1624 62.9137V62.4712L20.2724 62.1387V62.0274L20.4399 61.695L20.6062 61.5287V61.2512L20.7724 60.9187L21.3812 60.31L21.0487 59.3687L20.9374 58.3162L21.5462 57.2625L22.1549 57.0962L23.0411 57.5387C23.5386 57.5387 23.9824 57.8725 24.4249 58.315V58.4812L24.9236 59.3675V60.0312L25.0336 60.3087L25.5324 60.0312V58.9225L25.1986 58.315L23.8149 57.095L22.9286 56.6525L23.3711 56.3187L23.8136 56.1525H24.1461V56.485H24.7549L25.5311 56.3187L25.6974 56.485V56.7625H27.5249L27.6911 57.26L27.3586 57.5375L28.4661 58.0362V58.1462L28.2999 58.3137V58.48C28.4661 58.6462 28.5774 58.7562 29.0749 58.7562L29.1861 58.48L28.7436 58.0375V57.705H28.9099L28.7436 57.5375L28.1349 56.6525L27.8024 56.3187L27.1936 56.1525L26.7524 55.7187V55.2762L27.8049 54.335L28.1374 54.5012H28.4699L28.5811 54.335V53.615H28.7474V52.785L28.9136 52.5075V52.3413L29.0799 52.0075V51.3988L28.5824 51.8975V52.23L28.4686 52.3413L28.3024 53.1162V53.3925L28.1361 53.2262L28.3024 52.95V52.3413L28.4686 51.565V51.1225L28.5799 50.625V50.5138L28.7461 50.1813V49.8488L28.9124 49.7375V49.46L29.1899 48.7963L29.3561 48.63L30.2974 46.8013L30.4636 46.69L30.7411 46.0263L30.9086 45.5838L31.1849 45.085V44.8075H31.3511L31.6848 44.0326L32.1273 43.2576L32.2898 43.0913L32.5673 42.4813L32.8998 42.0388L33.2323 41.7063V42.2038L33.3436 42.4801L33.6761 42.0376L33.9536 41.2626L34.1198 41.0963V40.8188H34.6173L34.7286 41.0963L35.2261 40.8188L36.1123 39.8763V39.7101L36.7211 39.1013L37.9961 39.2676L38.2736 39.1013L37.3311 38.8238L37.0536 38.2151L36.7211 37.8826L36.1123 36.6638L35.9461 36.4963V36.1651L35.8348 36.0538V35.7213L35.6686 35.4426V30.6801H35.5023V30.1826L35.6686 30.0714L36.1111 29.9039L36.4448 29.5714V28.6864H36.6111L36.4448 28.1876V27.5789L36.1111 27.3014L35.6686 27.1351V26.6376L36.4448 25.2539L36.7211 24.9764V24.8102L36.8886 24.6439L36.7211 24.3664V24.2002L36.6111 24.0327V21.4302L36.4448 21.2639V20.8214L36.2773 20.6552V20.3777L36.1111 19.8789V17.6165L36.2773 17.4502V16.674L36.4448 16.3965V15.899L36.7211 16.2315V16.3977L36.8886 16.509V16.6752L37.0536 16.8415V17.009L37.2211 17.119V17.2852L37.3311 17.4527L37.6648 18.3939L37.8311 18.6714L37.9973 18.8377V20.9977H37.8311V23.7677H37.9973L38.2748 23.4352H38.4411V20.8314L38.6073 20.3889V19.4477L38.7173 18.3952V17.7864L38.8848 17.6202V17.2865H39.0511V15.459H39.2173V15.1265L39.3836 15.0152V14.6827H39.4948L39.8273 15.0152L39.9935 15.2927V15.459L40.1048 15.6252L40.271 15.9027V16.069L40.4373 16.2352V16.4015L40.6035 16.844V17.0115H40.7148V17.2877L40.881 17.6214V17.7877H41.0473V18.0652L41.381 18.3977V18.6752H41.491V19.7827L41.6573 20.3914V20.6689L41.8235 21.1664V21.2777L42.101 21.4439L42.4335 21.8864L44.5948 23.1614L45.536 24.0464V24.3802L45.6473 24.6577H45.8135V24.9902L45.9798 25.1564V25.2677L46.4223 25.7652L46.5885 26.0427L46.7548 26.2089L46.866 26.5414L47.0323 26.6526V26.8189L47.3648 27.3164L47.8073 27.7589L48.2498 28.0364L48.5835 28.2026L48.7498 28.5351L49.026 28.8126L49.3597 29.5876H49.526V29.9201L49.6372 30.0876L49.8035 30.5301V30.6976L50.0797 30.9751V31.1414L51.1885 31.5839L51.3547 32.0814L51.1885 32.1926L51.0222 32.5251L45.816 34.5189C45.3735 34.6851 44.8748 34.8526 44.7635 34.9613L41.2185 36.5113L39.6686 37.5651L39.3911 37.8976H39.2248L39.0586 38.2301L38.7248 38.5076L38.6148 38.8401L38.2823 39.1176L38.0048 39.2838V39.4501L38.1161 39.7276L38.7236 39.4501L39.9986 38.2313L41.9935 36.6813L42.1035 36.8476L42.8785 36.6813L46.2573 34.9638L55.506 32.3614L60.2697 32.0839L67.6359 32.8039H68.0784L68.6871 32.9701L69.0196 33.3026L68.8534 33.5801L69.4621 34.0776L68.6871 34.3551V34.6876H70.2371L71.1784 34.8551H72.0646L71.9534 34.1901V34.0789L72.2309 33.9126V34.1901H71.9534L72.0646 34.8551L72.3984 35.1313L72.8409 35.2989L73.0071 34.9651V34.1901L73.1734 33.9126V33.3039L73.3396 32.9714V31.4214L73.4509 30.9789V29.9251L73.1734 29.3176L73.0071 29.1514L72.7296 28.5414L72.5634 27.9326L72.2296 27.4351L71.6209 26.9926L71.1784 26.2176V25.9402L71.0021 25.5902L71.1684 25.4239V25.2577L71.3359 24.9802L71.4459 24.8139V24.5364L72.2209 23.4289V23.1539L72.3884 22.8202L72.5546 22.6539L72.8321 22.2114L72.9984 21.7689V21.2714L73.3309 20.6627L73.4421 20.2202L73.6084 20.0539L74.1059 19.1677V18.5027L74.3834 17.8939V17.7839L74.5496 17.4515V17.1165L74.7159 17.0065L74.8271 16.6727V16.3952L74.9933 16.0627V15.8965L75.3258 15.2877L75.6033 15.0102V14.6777L76.1008 14.069L76.2121 13.7365V13.459L76.5446 13.1265L76.9871 12.074L77.4858 11.6315L77.5958 11.2977V11.1315L77.7621 10.9652L77.9296 10.6877L78.0958 10.2452L78.3733 9.5815L78.5396 9.47025L79.7583 7.58651L80.2521 6.70526L80.6946 6.20651L80.9721 5.59777L81.3046 5.15527L81.4708 4.82277L81.6371 4.71152L82.0796 3.77028L82.3571 3.43778L82.8558 2.71778L83.2983 2.55154L83.7408 2.71778Z" fill="white"/>
<path d="M39.3785 28.3589L39.2123 27.7502L38.6035 27.5839L38.4373 27.7502L38.2723 28.0277L38.4373 28.5252L38.6035 28.8027H38.7135L39.2123 28.6927H39.3785V28.3589Z" fill="white"/>
</svg>
